<?xml version="1.0" standalone="no"?>
<!DOCTYPE svg PUBLIC "-//W3C//DTD SVG 20010904//EN"
 "http://www.w3.org/TR/2001/REC-SVG-20010904/DTD/svg10.dtd">
<svg version="1.0" xmlns="http://www.w3.org/2000/svg"
 width="700.000000pt" height="700.000000pt" viewBox="0 0 700.000000 700.000000"
 preserveAspectRatio="xMidYMid meet">
<metadata>
Created by potrace 1.14, written by Peter Selinger 2001-2017
</metadata>
<g transform="translate(0.000000,700.000000) scale(0.100000,-0.100000)"
fill="#000000" stroke="none">
<path d="M1341 6112 c-220 -45 -397 -217 -452 -442 -19 -78 -21 -4207 -2
-4318 31 -181 158 -345 328 -422 123 -56 69 -53 1338 -55 647 0 1177 1 1177 2
0 2 -17 38 -39 81 -77 154 -111 245 -145 397 l-23 100 -1028 2 c-565 2 -1030
5 -1032 7 -7 6 -6 4067 1 4073 6 6 4066 6 4072 0 3 -2 6 -467 7 -1032 l2
-1028 70 -14 c108 -22 292 -86 404 -142 57 -28 103 -51 104 -51 1 0 2 528 2
1173 -1 947 -4 1183 -14 1227 -52 212 -200 369 -408 432 -68 20 -71 21 -2182
22 -1726 1 -2126 -1 -2180 -12z"/>
<path d="M2043 4667 l2 -292 1455 0 1455 0 0 290 0 290 -1457 2 -1456 1 1
-291z"/>
<path d="M2099 3790 l-57 -5 0 -287 -1 -288 112 0 c62 0 566 0 1120 0 l1008 0
82 48 c166 97 334 163 510 201 l82 18 1 156 c1 86 -1 157 -5 157 -117 4 -2814
3 -2852 0z"/>
<path d="M5482 2148 l-522 -523 -233 233 -232 232 -169 -169 -169 -170 33 -38
c19 -21 50 -56 71 -78 20 -22 50 -54 65 -71 97 -105 276 -301 359 -390 5 -6
46 -51 90 -99 44 -49 103 -113 132 -144 l52 -56 691 690 c379 379 690 692 690
695 0 5 -300 373 -323 397 -10 10 -122 -96 -535 -509z"/>
<path d="M2043 2335 l2 -290 728 -1 727 -2 0 292 0 291 -729 0 -730 0 2 -290z"/>
</g>
</svg>
